<svg height="1038" width="720" xmlns="http://www.w3.org/2000/svg">
<rect height="1038" fill="#555" width="720"></rect>
<text fill="#7f7" font-family="Courier New" font-size="12" xml:space="preserve">
<tspan x="10" y="26">18 megabytes installed</tspan>
<tspan x="10" y="42"></tspan>
<tspan x="10" y="58">node_modules</tspan>
<tspan x="10" y="74">└─┬ jshint-jsx@0.5.0 </tspan>
<tspan x="10" y="90">  ├─┬ jshint@2.9.4 </tspan>
<tspan x="10" y="106">  │ ├─┬ cli@1.0.1 </tspan>
<tspan x="10" y="122">  │ │ └─┬ glob@7.1.1 </tspan>
<tspan x="10" y="138">  │ │   ├── fs.realpath@1.0.0 </tspan>
<tspan x="10" y="154">  │ │   ├─┬ inflight@1.0.6 </tspan>
<tspan x="10" y="170">  │ │   │ └── wrappy@1.0.2 </tspan>
<tspan x="10" y="186">  │ │   ├── inherits@2.0.3 </tspan>
<tspan x="10" y="202">  │ │   ├── once@1.4.0 </tspan>
<tspan x="10" y="218">  │ │   └── path-is-absolute@1.0.1 </tspan>
<tspan x="10" y="234">  │ ├─┬ console-browserify@1.1.0 </tspan>
<tspan x="10" y="250">  │ │ └── date-now@0.1.4 </tspan>
<tspan x="10" y="266">  │ ├── exit@0.1.2 </tspan>
<tspan x="10" y="282">  │ ├─┬ htmlparser2@3.8.3 </tspan>
<tspan x="10" y="298">  │ │ ├── domelementtype@1.3.0 </tspan>
<tspan x="10" y="314">  │ │ ├── domhandler@2.3.0 </tspan>
<tspan x="10" y="330">  │ │ ├─┬ domutils@1.5.1 </tspan>
<tspan x="10" y="346">  │ │ │ └─┬ dom-serializer@0.1.0 </tspan>
<tspan x="10" y="362">  │ │ │   ├── domelementtype@1.1.3 </tspan>
<tspan x="10" y="378">  │ │ │   └── entities@1.1.1 </tspan>
<tspan x="10" y="394">  │ │ ├── entities@1.0.0 </tspan>
<tspan x="10" y="410">  │ │ └─┬ readable-stream@1.1.14 </tspan>
<tspan x="10" y="426">  │ │   ├── core-util-is@1.0.2 </tspan>
<tspan x="10" y="442">  │ │   ├── isarray@0.0.1 </tspan>
<tspan x="10" y="458">  │ │   └── string_decoder@0.10.31 </tspan>
<tspan x="10" y="474">  │ ├── lodash@3.7.0 </tspan>
<tspan x="10" y="490">  │ ├─┬ minimatch@3.0.3 </tspan>
<tspan x="10" y="506">  │ │ └─┬ brace-expansion@1.1.7 </tspan>
<tspan x="10" y="522">  │ │   ├── balanced-match@0.4.2 </tspan>
<tspan x="10" y="538">  │ │   └── concat-map@0.0.1 </tspan>
<tspan x="10" y="554">  │ ├── shelljs@0.3.0 </tspan>
<tspan x="10" y="570">  │ └── strip-json-comments@1.0.4 </tspan>
<tspan x="10" y="586">  ├── lodash@2.4.2 </tspan>
<tspan x="10" y="602">  ├─┬ msx@0.4.1 </tspan>
<tspan x="10" y="618">  │ ├─┬ commoner@0.10.8 </tspan>
<tspan x="10" y="634">  │ │ ├─┬ commander@2.9.0 </tspan>
<tspan x="10" y="650">  │ │ │ └── graceful-readlink@1.0.1 </tspan>
<tspan x="10" y="666">  │ │ ├─┬ detective@4.5.0 </tspan>
<tspan x="10" y="682">  │ │ │ ├── acorn@4.0.11 </tspan>
<tspan x="10" y="698">  │ │ │ └── defined@1.0.0 </tspan>
<tspan x="10" y="714">  │ │ ├── glob@5.0.15 </tspan>
<tspan x="10" y="730">  │ │ ├── graceful-fs@4.1.11 </tspan>
<tspan x="10" y="746">  │ │ ├── iconv-lite@0.4.15 </tspan>
<tspan x="10" y="762">  │ │ ├─┬ mkdirp@0.5.1 </tspan>
<tspan x="10" y="778">  │ │ │ └── minimist@0.0.8 </tspan>
<tspan x="10" y="794">  │ │ ├── private@0.1.7 </tspan>
<tspan x="10" y="810">  │ │ ├── q@1.5.0 </tspan>
<tspan x="10" y="826">  │ │ └─┬ recast@0.11.23 </tspan>
<tspan x="10" y="842">  │ │   ├── ast-types@0.9.6 </tspan>
<tspan x="10" y="858">  │ │   ├── esprima@3.1.3 </tspan>
<tspan x="10" y="874">  │ │   └── source-map@0.5.6 </tspan>
<tspan x="10" y="890">  │ └─┬ jstransform@10.1.0 </tspan>
<tspan x="10" y="906">  │   ├── base62@0.1.1 </tspan>
<tspan x="10" y="922">  │   ├── esprima-fb@13001.1001.0-dev-harmony-fb </tspan>
<tspan x="10" y="938">  │   └─┬ source-map@0.1.31 </tspan>
<tspan x="10" y="954">  │     └── amdefine@1.0.1 </tspan>
<tspan x="10" y="970">  └─┬ react-tools@0.12.2 </tspan>
<tspan x="10" y="986">    └─┬ jstransform@8.2.0 </tspan>
<tspan x="10" y="1002">      ├── esprima-fb@8001.1001.0-dev-harmony-fb </tspan>
<tspan x="10" y="1018">      └── source-map@0.1.31</tspan>
</text>
</svg>
